<svg width="2436" height="866" viewBox="0 0 2436 866" fill="none" xmlns="http://www.w3.org/2000/svg">
<mask id="mask0" mask-type="alpha" maskUnits="userSpaceOnUse" x="0" y="69" width="728" height="675">
<rect y="69" width="728" height="674.831" fill="#C4C4C4"/>
</mask>
<g mask="url(#mask0)">
<path d="M661.116 423.287C661.116 595.507 521.502 735.12 349.282 735.12C177.062 735.12 37.4488 595.507 37.4488 423.287C37.4488 251.064 177.062 111.453 349.282 111.453C521.502 111.453 661.116 251.064 661.116 423.287Z" fill="white"/>
<path d="M349.282 111.453C177.062 111.453 37.4485 251.067 37.4485 423.287C37.4485 555.395 119.642 668.33 235.642 713.766C232.917 689.094 230.453 651.15 236.723 624.215C242.39 599.878 273.289 469.214 273.289 469.214C273.289 469.214 263.962 450.533 263.962 422.916C263.962 379.556 289.094 347.184 320.387 347.184C346.992 347.184 359.842 367.158 359.842 391.109C359.842 417.865 342.807 457.867 334.017 494.936C326.67 525.974 349.581 551.285 380.194 551.285C435.617 551.285 478.221 492.845 478.221 408.489C478.221 333.825 424.572 281.623 347.966 281.623C259.238 281.623 207.158 348.173 207.158 416.95C207.158 443.751 217.483 472.491 230.366 488.114C232.914 491.202 233.288 493.906 232.529 497.058C230.161 506.907 224.901 528.087 223.868 532.423C222.508 538.131 219.349 539.342 213.439 536.592C174.493 518.463 150.143 461.522 150.143 415.787C150.143 317.42 221.614 227.082 356.184 227.082C464.359 227.082 548.424 304.166 548.424 407.183C548.424 514.652 480.662 601.143 386.61 601.143C355.01 601.143 325.305 584.727 315.137 565.336C315.137 565.336 299.5 624.875 295.71 639.465C288.67 666.551 269.665 700.502 256.953 721.215C286.129 730.248 317.136 735.12 349.282 735.12C521.505 735.12 661.118 595.507 661.118 423.287C661.118 251.067 521.505 111.453 349.282 111.453Z" fill="#E60023"/>
</g>
<g clip-path="url(#clip0)">
<path d="M1679.46 526C1676.69 526 1673.89 525.956 1671.13 525.87L1671.2 523.872C1675.15 523.995 1679.18 524.029 1683.15 523.975L1683.17 525.975C1681.94 525.991 1680.7 526 1679.46 526ZM1695.21 525.536L1695.09 523.54C1699.05 523.307 1703.05 522.978 1707 522.565L1707.21 524.554C1703.23 524.971 1699.2 525.302 1695.21 525.536V525.536ZM1659.11 525.225C1655.12 524.919 1651.09 524.518 1647.13 524.032L1647.37 522.048C1651.31 522.529 1655.31 522.928 1659.26 523.23L1659.11 525.225ZM1719.15 523.025L1718.85 521.049C1722.78 520.452 1726.74 519.76 1730.62 518.989L1731.01 520.95C1727.1 521.727 1723.11 522.425 1719.15 523.025V523.025ZM1635.22 522.294C1631.28 521.626 1627.3 520.858 1623.39 520.011L1623.82 518.056C1627.69 518.897 1631.64 519.659 1635.55 520.321L1635.22 522.294ZM1742.76 518.332L1742.28 516.391C1746.14 515.436 1750.02 514.382 1753.82 513.257L1754.38 515.175C1750.56 516.309 1746.65 517.371 1742.76 518.332V518.332ZM1611.69 517.185C1607.82 516.157 1603.93 515.026 1600.13 513.822L1600.73 511.916C1604.51 513.11 1608.37 514.232 1612.2 515.252L1611.69 517.185ZM1765.85 511.484L1765.19 509.596C1768.93 508.294 1772.7 506.887 1776.38 505.412L1777.13 507.269C1773.41 508.755 1769.62 510.173 1765.85 511.484H1765.85ZM1588.7 509.918C1584.95 508.538 1581.17 507.049 1577.47 505.492L1578.25 503.648C1581.92 505.193 1585.67 506.671 1589.39 508.041L1588.7 509.918ZM1788.18 502.55L1787.35 500.729C1790.94 499.096 1794.56 497.352 1798.09 495.546L1799 497.327C1795.44 499.146 1791.8 500.903 1788.18 502.55H1788.18ZM1809.57 491.611L1808.58 489.875C1812.03 487.907 1815.47 485.839 1818.81 483.727L1819.88 485.416C1816.52 487.545 1813.05 489.63 1809.57 491.611H1809.57ZM1829.9 478.754L1828.75 477.115C1832 474.847 1835.24 472.471 1838.38 470.055L1839.6 471.641C1836.44 474.075 1833.17 476.469 1829.9 478.754ZM1525.07 475.937C1521.84 473.593 1518.62 471.137 1515.49 468.636L1516.73 467.073C1519.84 469.555 1523.04 471.992 1526.25 474.318L1525.07 475.937ZM1848.97 464.092L1847.69 462.562C1850.71 460.009 1853.72 457.348 1856.64 454.652L1858 456.121C1855.06 458.837 1852.02 461.518 1848.97 464.092H1848.97ZM1506.25 460.906C1503.24 458.273 1500.25 455.535 1497.37 452.767L1498.75 451.323C1501.62 454.071 1504.58 456.789 1507.56 459.402L1506.25 460.906ZM1866.65 447.745L1865.22 446.341C1868.01 443.514 1870.77 440.588 1873.42 437.646L1874.91 438.983C1872.24 441.949 1869.46 444.896 1866.65 447.745ZM1488.87 444.233C1486.12 441.333 1483.39 438.335 1480.78 435.323L1482.29 434.013C1484.88 437.002 1487.59 439.977 1490.32 442.854L1488.87 444.233ZM1882.77 429.854L1881.22 428.584C1883.74 425.517 1886.22 422.352 1888.6 419.175L1890.2 420.372C1887.81 423.573 1885.31 426.764 1882.77 429.853L1882.77 429.854ZM1473.1 426.057C1470.62 422.927 1468.18 419.695 1465.85 416.452L1467.47 415.284C1469.79 418.502 1472.21 421.709 1474.66 424.816L1473.1 426.057ZM1897.2 410.56L1895.54 409.437C1897.77 406.152 1899.96 402.772 1902.03 399.389L1903.74 400.436C1901.64 403.845 1899.44 407.251 1897.2 410.56L1897.2 410.56ZM1459.05 406.53C1456.87 403.189 1454.73 399.752 1452.71 396.31L1454.43 395.295C1456.44 398.71 1458.56 402.122 1460.72 405.436L1459.05 406.53ZM1909.81 390.019L1908.06 389.053C1909.98 385.578 1911.85 382.01 1913.61 378.446L1915.4 379.333C1913.63 382.923 1911.75 386.518 1909.81 390.019V390.019ZM1920.49 368.398L1918.66 367.596C1920.25 363.956 1921.78 360.228 1923.21 356.518L1925.08 357.234C1923.64 360.975 1922.1 364.73 1920.49 368.398V368.398ZM1436.59 364.083C1435.06 360.403 1433.59 356.639 1432.23 352.893L1434.11 352.209C1435.46 355.927 1436.91 359.662 1438.44 363.313L1436.59 364.083ZM1929.14 345.867L1927.24 345.238C1928.49 341.477 1929.67 337.634 1930.74 333.812L1932.67 334.353C1931.58 338.204 1930.4 342.078 1929.14 345.867ZM1428.37 341.484C1427.18 337.673 1426.07 333.779 1425.05 329.91L1426.98 329.402C1427.99 333.242 1429.1 337.106 1430.28 340.889L1428.37 341.484ZM1935.66 322.689L1933.71 322.236C1934.61 318.382 1935.42 314.445 1936.14 310.538L1938.11 310.899C1937.39 314.838 1936.56 318.804 1935.66 322.689V322.689ZM1422.27 318.195C1421.43 314.289 1420.68 310.309 1420.02 306.365L1421.99 306.037C1422.64 309.952 1423.39 313.901 1424.22 317.777L1422.27 318.195ZM1940.02 299.012L1938.04 298.74C1938.57 294.823 1939.03 290.829 1939.39 286.868L1941.38 287.048C1941.02 291.04 1940.56 295.064 1940.02 299.012V299.012ZM1418.32 294.445C1417.85 290.486 1417.46 286.454 1417.17 282.461L1419.17 282.314C1419.46 286.278 1419.84 290.279 1420.31 294.209L1418.32 294.445ZM1942.19 275.036L1940.19 274.946C1940.37 270.983 1940.46 266.964 1940.46 263H1942.46C1942.46 266.994 1942.37 271.044 1942.19 275.036ZM1416.57 270.435C1416.5 267.982 1416.46 265.48 1416.46 263C1416.46 261.461 1416.48 259.925 1416.5 258.392L1418.5 258.427C1418.48 259.948 1418.46 261.473 1418.46 263C1418.46 265.462 1418.5 267.945 1418.57 270.38L1416.57 270.435ZM1418.98 246.487L1416.98 246.362C1417.23 242.366 1417.58 238.33 1418 234.365L1419.99 234.581C1419.57 238.515 1419.23 242.52 1418.98 246.487H1418.98ZM1939.17 234.285C1938.77 230.342 1938.22 228.42 1937.64 224.494L1939.62 224.202C1940.21 228.158 1940.71 231.177 1941.11 235.15L1939.17 234.285ZM1421.55 222.734L1419.57 222.428C1420.19 218.472 1420.9 214.484 1421.69 210.574L1423.65 210.971C1422.86 214.851 1422.16 218.808 1421.55 222.734ZM1935.62 212.718C1934.86 208.817 1934 204.89 1933.07 201.046L1935.01 200.573C1935.95 204.446 1936.82 208.404 1937.59 212.334L1935.62 212.718ZM1426.29 199.317L1424.35 198.831C1425.32 194.957 1426.39 191.051 1427.54 187.221L1429.46 187.796C1428.32 191.597 1427.25 195.473 1426.29 199.317ZM1929.97 189.503C1928.86 185.695 1927.64 181.865 1926.35 178.117L1928.24 177.466C1929.54 181.243 1930.77 185.104 1931.89 188.941L1929.97 189.503ZM1433.17 176.403L1431.29 175.74C1432.61 171.959 1434.05 168.161 1435.55 164.449L1437.4 165.199C1435.91 168.882 1434.49 172.652 1433.17 176.403V176.403ZM1922.21 166.909C1920.75 163.228 1919.18 159.534 1917.56 155.929L1919.38 155.108C1921.02 158.741 1922.59 162.463 1924.06 166.171L1922.21 166.909ZM1442.15 154.206L1440.33 153.371C1442 149.733 1443.78 146.085 1445.62 142.529L1447.39 143.446C1445.57 146.976 1443.81 150.596 1442.15 154.206ZM1912.42 145.17C1910.63 141.64 1908.73 138.102 1906.78 134.656L1908.52 133.67C1910.49 137.143 1912.4 140.708 1914.2 144.266L1912.42 145.17ZM1453.13 132.941L1451.39 131.943C1453.39 128.478 1455.49 125.011 1457.65 121.637L1459.33 122.713C1457.19 126.061 1455.1 129.503 1453.13 132.941V132.941ZM1900.67 124.406C1898.55 121.041 1896.34 117.69 1894.09 114.444L1895.73 113.304C1898 116.575 1900.23 119.952 1902.36 123.342L1900.67 124.406ZM1466 112.782L1464.36 111.63C1466.67 108.36 1469.08 105.101 1471.53 101.942L1473.11 103.168C1470.68 106.303 1468.29 109.537 1466 112.782ZM1887.06 104.79C1884.65 101.633 1882.14 98.4951 1879.6 95.4628L1881.13 94.1782C1883.69 97.2338 1886.22 100.395 1888.65 103.576L1887.06 104.79ZM1480.65 93.8911L1479.13 92.5942C1481.72 89.5551 1484.41 86.5302 1487.14 83.6035L1488.61 84.9678C1485.9 87.8725 1483.22 90.8749 1480.65 93.8911ZM1871.72 86.4829C1869.04 83.5586 1866.25 80.6601 1863.44 77.8691L1864.85 76.4502C1867.68 79.2632 1870.49 82.1831 1873.19 85.1294L1871.72 86.4829ZM1496.96 76.4189L1495.56 74.9892C1498.42 72.1913 1501.38 69.4252 1504.35 66.768L1505.69 68.2602C1502.73 70.8969 1499.79 73.642 1496.96 76.4189ZM1854.77 69.6391C1851.83 66.9687 1848.79 64.3349 1845.74 61.811L1847.01 60.27C1850.09 62.813 1853.15 65.4667 1856.12 68.1577L1854.77 69.6391ZM1514.77 60.5073L1513.51 58.9565C1516.61 56.4375 1519.8 53.9531 1523.01 51.5722L1524.21 53.1787C1521.02 55.5419 1517.84 58.0073 1514.77 60.5073ZM1533.96 46.29L1532.84 44.6308C1536.15 42.4033 1539.56 40.2221 1542.97 38.1464L1544.01 39.8554C1540.62 41.915 1537.24 44.08 1533.96 46.29ZM1554.34 33.8886L1553.38 32.1337C1556.89 30.2172 1560.48 28.3578 1564.06 26.6064L1564.94 28.4033C1561.38 30.1411 1557.82 31.9863 1554.34 33.8886ZM1795.71 29.2548C1792.16 27.4818 1788.51 25.769 1784.88 24.164L1785.69 22.3349C1789.35 23.9521 1793.02 25.6782 1796.61 27.4648L1795.71 29.2548ZM1575.77 23.4106L1574.97 21.5756C1578.63 19.9892 1582.38 18.4677 1586.1 17.0531L1586.81 18.9232C1583.11 20.3266 1579.4 21.8364 1575.77 23.4106ZM1773.82 19.5761C1770.12 18.1401 1766.33 16.7699 1762.55 15.5043L1763.19 13.6078C1766.99 14.8837 1770.81 16.2641 1774.54 17.7118L1773.82 19.5761ZM1598.08 14.9394L1597.45 13.039C1601.25 11.7929 1605.13 10.6196 1608.98 9.55268L1609.51 11.4794C1605.69 12.5385 1601.85 13.7026 1598.08 14.9394ZM1751.14 11.9658C1747.32 10.8784 1743.43 9.86567 1739.58 8.956L1740.03 7.00971C1743.92 7.92621 1747.84 8.94671 1751.69 10.0419L1751.14 11.9658ZM1621.1 8.55024L1620.65 6.60053C1624.55 5.71039 1628.52 4.89936 1632.45 4.19037L1632.8 6.15815C1628.9 6.86225 1624.96 7.66694 1621.1 8.55024ZM1727.88 6.48334C1723.99 5.75239 1720.02 5.10199 1716.09 4.55024L1716.37 2.56977C1720.33 3.12592 1724.33 3.78119 1728.25 4.51752L1727.88 6.48334ZM1644.61 4.30709L1644.34 2.32467C1648.3 1.79635 1652.33 1.35201 1656.31 1.00534L1656.49 2.99752C1652.53 3.34223 1648.54 3.78266 1644.61 4.30709ZM1704.23 3.15963C1700.29 2.78854 1696.28 2.50241 1692.31 2.31051L1692.4 0.31251C1696.4 0.50636 1700.44 0.79445 1704.41 1.16851L1704.23 3.15963ZM1668.41 2.23043L1668.33 0.23243C1672 0.0791095 1675.75 0.00098 1679.46 0L1680.37 0.00147057L1680.36 2.00147L1679.46 2C1675.78 2.00092 1672.06 2.07856 1668.41 2.23041V2.23043Z" fill="#3F3D56"/>
<path d="M2001.24 94.2062V742.406C2001.23 750.128 1998.16 757.53 1992.7 762.989C1987.24 768.447 1979.83 771.514 1972.11 771.516H1708.96C1705.14 771.523 1701.35 770.775 1697.81 769.314C1694.27 767.854 1691.06 765.71 1688.36 763.006C1685.65 760.302 1683.5 757.09 1682.04 753.556C1680.58 750.021 1679.83 746.232 1679.83 742.406V94.2062C1679.83 90.3807 1680.58 86.5926 1682.05 83.0582C1683.51 79.5239 1685.66 76.3125 1688.36 73.6074C1691.07 70.9024 1694.28 68.7567 1697.81 67.2929C1701.35 65.8291 1705.14 65.0758 1708.96 65.0762H1748.34V70.1262C1748.34 76.4872 1750.87 82.5881 1755.36 87.087C1759.86 91.5859 1765.96 94.1143 1772.32 94.1162H1906.16C1911.28 94.1271 1916.27 92.4858 1920.38 89.4362C1921.21 88.8314 1922 88.1698 1922.74 87.4562C1925.08 85.2192 1926.95 82.5297 1928.22 79.5507C1929.49 76.5717 1930.15 73.3654 1930.14 70.1262V65.0762H1972.11C1975.94 65.075 1979.73 65.8277 1983.26 67.2912C1986.79 68.7547 1990.01 70.9003 1992.71 73.6055C1995.42 76.3107 1997.56 79.5225 1999.03 83.0572C2000.49 86.592 2001.24 90.3804 2001.24 94.2062V94.2062Z" fill="#3F3D56"/>
<path d="M1962.77 298.746H1718.3V484.746H1962.77V298.746Z" fill="#22D596"/>
<path d="M1589.57 267.407C1611.34 267.874 1628.65 283.647 1628.65 283.647C1628.65 283.647 1610.68 298.663 1588.91 298.196C1567.15 297.729 1549.83 281.956 1549.83 281.956C1549.83 281.956 1567.81 266.94 1589.57 267.407Z" fill="#22D596"/>
<path d="M1480.14 193.109C1499.81 202.451 1522.36 196.116 1522.36 196.116C1522.36 196.116 1513.02 174.634 1493.36 165.292C1473.69 155.95 1451.15 162.285 1451.15 162.285C1451.15 162.285 1460.48 183.767 1480.14 193.109Z" fill="#22D596"/>
<path d="M1482.14 183.825C1503.82 181.844 1522.8 195.572 1522.8 195.572C1522.8 195.572 1506.63 212.512 1484.95 214.494C1463.27 216.475 1444.29 202.747 1444.29 202.747C1444.29 202.747 1460.46 185.806 1482.14 183.825Z" fill="#3F3D56"/>
<path d="M1561.62 187.579C1559.54 209.25 1573.18 228.288 1573.18 228.288C1573.18 228.288 1590.19 212.19 1592.27 190.518C1594.35 168.847 1580.71 149.809 1580.71 149.809C1580.71 149.809 1563.69 165.907 1561.62 187.579Z" fill="#3F3D56"/>
<path d="M1663.72 320.489C1652.35 339.054 1656.26 362.147 1656.26 362.147C1656.26 362.147 1678.61 355.14 1689.98 336.575C1701.35 318.01 1697.44 294.917 1697.44 294.917C1697.44 294.917 1675.09 301.924 1663.72 320.489Z" fill="#3F3D56"/>
<path d="M1630.73 522.337L1632.39 521.217C1626.55 512.74 1623.36 502.718 1623.22 492.425C1623.27 477.367 1630.67 463.44 1637.82 449.971C1639.15 447.471 1640.47 444.979 1641.74 442.489C1647.09 432.334 1651.35 421.644 1654.45 410.596C1665.54 369.366 1654.62 320.723 1625.23 280.474C1601.91 248.545 1567.16 220.625 1518.97 195.119L1518.04 196.886C1565.95 222.248 1600.48 249.976 1623.61 281.654C1652.65 321.417 1663.46 369.426 1652.52 410.077C1649.45 420.989 1645.24 431.548 1639.96 441.579C1638.69 444.06 1637.38 446.542 1636.05 449.033C1628.79 462.717 1621.27 476.866 1621.22 492.419C1621.36 503.114 1624.67 513.528 1630.73 522.337V522.337Z" fill="#3F3D56"/>
<path d="M1424 197.747C1434.49 197.747 1443 189.24 1443 178.747C1443 168.253 1434.49 159.747 1424 159.747C1413.51 159.747 1405 168.253 1405 178.747C1405 189.24 1413.51 197.747 1424 197.747Z" fill="#3F3D56"/>
<path d="M1691.46 487.161L1572.19 477.222V302.294L1691.46 296.331V487.161Z" fill="#22D596"/>
<path d="M1989.61 487.161L2108.88 477.222V302.294L1989.61 296.331V487.161Z" fill="#22D596"/>
<path d="M1881.99 368.56C1878.45 365.494 1874.07 363.544 1869.42 362.953C1864.77 362.361 1860.05 363.155 1855.84 365.235C1852.19 367.001 1848.27 368.124 1844.24 368.556C1844.14 359.825 1845.74 351.158 1848.96 343.04L1849.48 341.679H1842.47L1842.27 342.415C1841.49 345.285 1840.88 348.198 1840.43 351.14C1840.05 349.865 1839.56 348.626 1838.96 347.437C1834.05 337.688 1822.68 333.701 1822.2 333.537L1821.23 333.205L1820.93 334.181C1820.77 334.666 1817.22 346.171 1822.14 355.92C1825.66 362.9 1832.48 366.926 1836.25 368.71C1831.48 368.403 1826.82 367.156 1822.53 365.041C1819.86 363.663 1816.86 363.067 1813.86 363.32C1810.86 363.573 1808 364.665 1805.6 366.47C1792.51 376.416 1785 390.995 1785 406.47C1785 426.798 1798.17 445.414 1818.54 453.896C1820.38 454.659 1822.35 455.05 1824.34 455.048C1827.1 455.048 1829.81 454.305 1832.19 452.895C1835.35 451.058 1838.93 450.087 1842.59 450.079C1846.24 450.072 1849.83 451.028 1853 452.853C1855.04 454.06 1857.34 454.775 1859.71 454.942C1862.08 455.109 1864.46 454.723 1866.66 453.814C1886.91 445.299 1900 426.715 1900 406.47C1900 391.979 1893.61 378.516 1881.99 368.56ZM1844 343.679H1846.58C1843.68 351.432 1842.21 359.644 1842.22 367.92H1841.76C1841.14 359.771 1841.9 351.576 1844 343.679V343.679ZM1823.93 355.02C1820.19 347.619 1821.83 338.798 1822.55 335.821C1825.38 337.006 1833.44 340.923 1837.18 348.337C1840.91 355.737 1839.27 364.557 1838.55 367.535C1835.72 366.347 1827.66 362.419 1823.93 355.02V355.02ZM1865.88 451.971C1863.97 452.76 1861.91 453.095 1859.85 452.948C1857.79 452.802 1855.79 452.179 1854.01 451.128C1850.54 449.122 1846.59 448.071 1842.58 448.079C1838.57 448.088 1834.63 449.156 1831.17 451.176C1829.39 452.231 1827.4 452.859 1825.34 453.011C1823.28 453.163 1821.22 452.834 1819.31 452.051C1799.68 443.88 1787 425.988 1787 406.47C1787 391.626 1794.22 377.627 1806.81 368.063C1809.22 366.239 1812.17 365.256 1815.19 365.263C1817.43 365.262 1819.63 365.795 1821.62 366.818C1827.1 369.432 1833.08 370.806 1839.15 370.842C1845.22 370.878 1851.22 369.575 1856.73 367.026C1860.58 365.121 1864.91 364.395 1869.17 364.938C1873.43 365.48 1877.44 367.269 1880.69 370.078C1891.85 379.648 1898 392.572 1898 406.47C1898 425.908 1885.39 443.768 1865.88 451.971V451.971Z" fill="white"/>
<path d="M1631.5 349.66V347.313H1632.43V339.999C1632.44 339.456 1632.29 338.924 1632.01 338.458C1631.73 337.993 1631.33 337.614 1630.85 337.361C1626.73 335.208 1622.29 335.21 1617.67 337.372C1617.16 337.614 1616.73 337.996 1616.43 338.473C1616.13 338.951 1615.97 339.504 1615.97 340.069V347.313H1616.9V349.438C1613.47 350.401 1610.44 352.463 1608.29 355.31C1606.14 358.156 1604.99 361.629 1605 365.196V381.022L1606.78 381.615L1605 382.799V387.555L1606.78 388.148L1605 389.333V394.089L1606.78 394.681L1605 395.866V432.089C1605 434.914 1606.13 437.623 1608.13 439.621C1610.12 441.619 1612.83 442.743 1615.66 442.746H1631.37C1634.19 442.743 1636.89 441.622 1638.88 439.628C1640.88 437.635 1642 434.932 1642 432.113V395.866L1640.22 394.681L1642 394.089V389.333L1640.22 388.148L1642 387.555V382.799L1640.22 381.615L1642 381.022V364.378C1641.99 361.14 1640.97 357.985 1639.09 355.349C1637.21 352.713 1634.56 350.725 1631.5 349.66V349.66ZM1618.52 339.183C1622.6 337.275 1626.33 337.259 1629.93 339.135C1630.08 339.22 1630.21 339.345 1630.3 339.497C1630.39 339.649 1630.44 339.822 1630.43 339.999V343.913H1617.97V340.069C1617.97 339.885 1618.02 339.703 1618.11 339.547C1618.21 339.39 1618.35 339.264 1618.52 339.183V339.183ZM1640 379.581L1635.71 381.01L1640 383.87V386.114L1635.71 387.544L1640 390.403V392.648L1635.71 394.077L1640 396.937V432.113C1640 434.402 1639.09 436.596 1637.47 438.215C1635.85 439.833 1633.66 440.744 1631.37 440.746H1615.66C1613.36 440.744 1611.16 439.831 1609.54 438.208C1607.92 436.585 1607 434.384 1607 432.089V396.937L1611.29 394.077L1607 392.648V390.403L1611.29 387.544L1607 386.114V383.87L1611.29 381.01L1607 379.581V365.196C1606.99 361.944 1608.08 358.786 1610.11 356.239C1612.13 353.693 1614.96 351.911 1618.13 351.188L1618.9 351.008V347.313H1629.5V351.143L1630.22 351.352C1633.04 352.181 1635.51 353.897 1637.27 356.244C1639.03 358.591 1639.99 361.444 1640 364.378V379.581Z" fill="white"/>
<path d="M2101.56 377.048L2096.53 376.041L2097.71 373.67L2095.41 373.208L2095.8 370.807L2093.28 370.386V368.108L2091.24 367.523L2093.18 365.096H2089.81L2090.51 363.338L2088.02 362.923L2088.87 359.959H2086.17V357.194H2085.17C2082.02 357.194 2080.26 360.936 2079.69 362.435C2062.29 365.468 2011.79 400.446 2006.03 404.469C2003.64 403.692 2000.08 405.513 1999.34 405.917L1998.17 406.557L1999.86 408.25L1999.36 409.764L2002.47 410.929L2001.78 412.63L2003.74 414.262L2001.98 415.581L2004.63 417.169L2004.16 419.489L2007.12 419.912V422.234L2008.84 422.578L2007.98 425.576H2009.89V427.947H2011.74L2012.59 430.473L2013.45 430.299C2015.46 429.896 2017.19 427.113 2017.86 425.879C2034.61 422.89 2086.32 386.506 2091.36 382.943C2097.24 383.647 2099.39 382.077 2099.63 381.892L2100.58 381.127L2098.3 379.225L2101.56 377.048ZM2091.23 380.911L2090.84 380.858L2090.52 381.086C2089.95 381.492 2033.23 421.672 2017.07 423.981L2016.55 424.056L2016.31 424.524C2015.69 425.788 2014.86 426.933 2013.84 427.906L2013.19 425.947H2011.89V423.576H2010.63L2011.36 421.043L2009.12 420.596V418.178L2006.54 417.809L2006.87 416.179L2005.56 415.395L2006.96 414.344L2004.18 412.024L2005.08 409.774L2001.87 408.568L2002.15 407.711L2001.53 407.089C2003.03 406.465 2004.85 406 2005.63 406.467L2006.19 406.802L2006.72 406.429C2007.29 406.031 2063.61 366.632 2080.56 364.321L2081.2 364.235L2081.39 363.624C2081.68 362.679 2082.71 360.291 2084.17 359.474V361.959H2086.22L2085.48 364.528L2087.73 364.903L2086.85 367.096H2089.02L2087.8 368.621L2091.28 369.617V372.08L2093.5 372.45L2093.11 374.79L2094.76 375.118L2093.57 377.489L2096.44 378.062L2094.96 379.046L2097.08 380.816C2095.16 381.208 2093.17 381.24 2091.23 380.911V380.911Z" fill="white"/>
<path d="M1840.54 569.746C1856.55 569.746 1869.54 556.762 1869.54 540.746C1869.54 524.73 1856.55 511.746 1840.54 511.746C1824.52 511.746 1811.54 524.73 1811.54 540.746C1811.54 556.762 1824.52 569.746 1840.54 569.746Z" fill="#22D596"/>
<path d="M1858.79 537.882H1843.4V522.487H1837.67V537.882H1822.28V543.61H1837.67V559.005H1843.4V543.61H1858.79V537.882Z" fill="white"/>
<path d="M1932 541.746L1917 534.746V538.746H1882V544.746H1917V548.746L1932 541.746Z" fill="white"/>
<path d="M1749.07 541.746L1764.07 534.746V538.746H1799.07V544.746H1764.07V548.746L1749.07 541.746Z" fill="white"/>
<path d="M2207.04 771.746H1474.04V773.746H2207.04V771.746Z" fill="#3F3D56"/>
<path d="M1936.54 159.746H1744.54V161.746H1936.54V159.746Z" fill="white"/>
<path d="M1937 705.746H1745V707.746H1937V705.746Z" fill="white"/>
<path d="M2245.5 508.246L2240.5 527.246C2240.5 527.246 2222.5 567.246 2240.5 569.246C2258.5 571.246 2259.5 517.246 2259.5 517.246L2245.5 508.246Z" fill="#A0616A"/>
<path d="M2276.5 371.246L2240.5 513.246C2240.5 513.246 2254.5 517.246 2261.5 522.246L2276.5 371.246Z" fill="#D0CDE1"/>
<path d="M2389.5 479.246L2399.5 634.246C2399.5 634.246 2423.5 695.246 2422.5 753.246C2422.5 753.246 2413.5 776.246 2420.5 780.246C2427.5 784.246 2431.5 787.246 2427.5 790.246C2423.5 793.246 2420.5 800.246 2423.5 802.246C2426.5 804.246 2427.5 807.246 2426.5 807.246H2396.5C2396.5 807.246 2402.5 792.246 2393.5 788.246C2384.5 784.246 2389.5 774.246 2389.5 774.246L2322.5 578.246L2269.5 758.246C2269.5 758.246 2278.5 764.246 2271.5 767.246C2264.5 770.246 2261.5 764.246 2264.5 770.246C2267.5 776.246 2263.5 779.246 2263.5 780.246C2263.5 781.246 2233.5 777.246 2233.5 777.246C2233.5 777.246 2248.5 764.246 2241.5 761.246C2234.5 758.246 2231.5 755.246 2233.5 753.246C2235.5 751.246 2243.5 732.246 2243.5 732.246C2243.5 732.246 2247.5 660.246 2248.5 657.246C2249.5 654.246 2248.5 640.246 2248.5 633.246C2248.5 626.246 2247.5 598.246 2250.5 591.246C2253.5 584.246 2256.5 498.246 2272.5 488.246C2288.5 478.246 2389.5 479.246 2389.5 479.246Z" fill="#2F2E41"/>
<path d="M2262.5 775.246C2262.5 775.246 2282.5 816.246 2268.5 821.246C2254.5 826.246 2236.5 822.246 2232.5 828.246C2228.5 834.246 2184.5 841.246 2183.5 826.246C2182.5 811.246 2231.5 783.246 2231.5 783.246L2237.88 772.968L2262.5 775.246Z" fill="#2F2E41"/>
<path d="M2424.5 805.246C2424.5 805.246 2444.5 846.246 2430.5 851.246C2416.5 856.246 2398.5 852.246 2394.5 858.246C2390.5 864.246 2346.5 871.246 2345.5 856.246C2344.5 841.246 2393.5 813.246 2393.5 813.246L2399.88 802.968L2424.5 805.246Z" fill="#2F2E41"/>
<path d="M2332 290.746C2350.23 290.746 2365 275.972 2365 257.746C2365 239.521 2350.23 224.746 2332 224.746C2313.78 224.746 2299 239.521 2299 257.746C2299 275.972 2313.78 290.746 2332 290.746Z" fill="#A0616A"/>
<path d="M2354.5 275.246L2350.5 304.246L2320.5 327.246L2312.5 316.246V278.246L2354.5 275.246Z" fill="#A0616A"/>
<path d="M2307.5 312.246C2307.5 312.246 2338.5 315.246 2354.5 304.246L2386.5 493.246C2386.5 493.246 2273.5 502.246 2268.5 496.246V437.246L2288.5 341.246L2307.5 312.246Z" fill="#3F3D56"/>
<path d="M2351.75 295.21L2362.5 304.246C2362.5 304.246 2406.5 311.246 2403.5 323.246L2391.5 465.246L2395.5 513.246C2395.5 513.246 2361.5 504.246 2335.5 513.246C2309.5 522.246 2330.16 319.843 2330.16 319.843C2330.16 319.843 2353.99 298.174 2351.75 295.21Z" fill="#D0CDE1"/>
<path d="M2312.5 306.156C2312.5 306.156 2280.5 329.246 2276.5 344.246C2272.5 359.246 2259.5 517.246 2259.5 517.246C2259.5 517.246 2265.5 514.246 2268.5 519.246C2271.5 524.246 2317.5 314.065 2312.5 306.156Z" fill="#D0CDE1"/>
<path d="M2400.5 515.246L2393.33 538.638C2393.33 538.638 2391.5 582.246 2367.5 576.246C2343.5 570.246 2374.5 519.246 2374.5 519.246L2381.5 508.246L2400.5 515.246Z" fill="#A0616A"/>
<path d="M2299.02 256.308C2299.02 256.308 2295.44 250.95 2296.82 245.179C2297.64 241.902 2297.96 238.521 2297.78 235.148C2297.78 235.148 2300.67 225.805 2303.55 220.584C2306.44 215.363 2305.06 213.164 2314.13 211.515C2323.2 209.866 2319.49 198.05 2343.4 210.828C2344.2 211.955 2345.33 212.817 2346.62 213.306C2347.92 213.795 2349.33 213.889 2350.68 213.576C2355.63 212.615 2357.41 219.485 2357.41 219.485C2357.41 219.485 2360.71 217.561 2361.95 220.309C2363.18 223.057 2372 218.66 2372 237.209C2372 255.758 2361.97 272.328 2361.97 272.328C2361.97 272.328 2362.7 241.125 2346.35 237.965C2330 234.805 2312.41 225.599 2308.15 237.416C2305.85 244.048 2302.79 250.388 2299.02 256.308Z" fill="#2F2E41"/>
<path d="M2362.33 263.727C2364.11 263.727 2365.55 261.802 2365.55 259.427C2365.55 257.052 2364.11 255.126 2362.33 255.126C2360.54 255.126 2359.1 257.052 2359.1 259.427C2359.1 261.802 2360.54 263.727 2362.33 263.727Z" fill="#A0616A"/>
<path d="M2395.5 316.246C2395.5 316.246 2411.5 312.246 2416.5 339.246C2421.5 366.246 2427.5 443.246 2427.5 443.246L2403.5 524.246C2403.5 524.246 2379.5 511.246 2374.5 513.246L2393.39 442.925L2377.5 371.246C2377.5 371.246 2391.5 316.246 2395.5 316.246Z" fill="#D0CDE1"/>
<path opacity="0.15" d="M2372.24 372.614L2393.24 442.614L2372.24 513.614L2384.24 442.614L2372.24 372.614Z" fill="black"/>
</g>
<path d="M1265.36 439.364C1268.88 435.849 1268.88 430.151 1265.36 426.636L1208.09 369.36C1204.57 365.846 1198.88 365.846 1195.36 369.36C1191.85 372.875 1191.85 378.574 1195.36 382.088L1246.27 433L1195.36 483.912C1191.85 487.426 1191.85 493.125 1195.36 496.64C1198.88 500.154 1204.57 500.154 1208.09 496.64L1265.36 439.364ZM874 442L1259 442V424L874 424V442Z" fill="#3F3D56"/>
<defs>
<clipPath id="clip0">
<rect width="1030.47" height="865.228" fill="white" transform="translate(1405)"/>
</clipPath>
</defs>
</svg>
