<svg width="356" height="313" viewBox="0 0 356 313" fill="none" xmlns="http://www.w3.org/2000/svg">
<mask id="mask0" mask-type="alpha" maskUnits="userSpaceOnUse" x="0" y="-17" width="356" height="330">
<rect y="-17" width="356" height="330" fill="#C4C4C4"/>
</mask>
<g mask="url(#mask0)">
<path d="M323.293 156.25C323.293 240.468 255.02 308.74 170.803 308.74C86.5855 308.74 18.313 240.468 18.313 156.25C18.313 72.0314 86.5855 3.76012 170.803 3.76012C255.02 3.76012 323.293 72.0314 323.293 156.25Z" fill="white"/>
<path d="M170.803 3.75988C86.5852 3.75988 18.3127 72.0324 18.3127 156.25C18.3127 220.852 58.5065 276.079 115.231 298.297C113.899 286.232 112.694 267.677 115.76 254.506C118.531 242.605 133.641 178.709 133.641 178.709C133.641 178.709 129.08 169.574 129.08 156.069C129.08 134.865 141.37 119.035 156.673 119.035C169.683 119.035 175.966 128.802 175.966 140.515C175.966 153.599 167.636 173.16 163.338 191.287C159.745 206.465 170.949 218.842 185.919 218.842C213.021 218.842 233.855 190.265 233.855 149.014C233.855 112.502 207.62 86.9749 170.159 86.9749C126.77 86.9749 101.303 119.519 101.303 153.151C101.303 166.257 106.351 180.311 112.651 187.951C113.898 189.461 114.08 190.784 113.709 192.325C112.551 197.141 109.979 207.499 109.474 209.619C108.809 212.41 107.264 213.002 104.374 211.657C85.329 202.792 73.4215 174.947 73.4215 152.582C73.4215 104.48 108.371 60.3036 174.178 60.3036C227.076 60.3036 268.185 97.9986 268.185 148.375C268.185 200.929 235.049 243.224 189.056 243.224C173.604 243.224 159.078 235.196 154.105 225.714C154.105 225.714 146.459 254.829 144.605 261.964C141.163 275.209 131.869 291.811 125.653 301.94C139.92 306.357 155.083 308.74 170.803 308.74C255.021 308.74 323.294 240.467 323.294 156.25C323.294 72.0324 255.021 3.75988 170.803 3.75988Z" fill="#E60023"/>
</g>
</svg>
